<?xml version="1.0" encoding="iso-8859-1"?>
<!DOCTYPE svg PUBLIC "-//W3C//DTD SVG 1.0//EN" "http://www.w3.org/TR/2001/REC-SVG-20010904/DTD/svg10.dtd">
<svg width="2120" height="1130" xmlns="http://www.w3.org/2000/svg" xmlns:xlink="http://www.w3.org/1999/xlink">
<g style="stroke:black;fill:lightgreen" transform="translate(30,30)">
<line x1="1078" y1="479" x2="1083" y2="473" style="stroke:blue; stroke-width:1"/>
<line x1="1083" y1="473" x2="1083" y2="473" style="stroke:blue; stroke-width:1"/>
<line x1="1083" y1="473" x2="1083" y2="481" style="stroke:blue; stroke-width:1"/>
<line x1="1083" y1="473" x2="435" y2="204" style="stroke:blue; stroke-width:1"/>
<line x1="435" y1="204" x2="441" y2="210" style="stroke:blue; stroke-width:1"/>
<line x1="435" y1="204" x2="24" y2="204" style="stroke:blue; stroke-width:1"/>
<line x1="1083" y1="473" x2="1076" y2="551" style="stroke:blue; stroke-width:1"/>
<line x1="1076" y1="551" x2="1071" y2="556" style="stroke:blue; stroke-width:1"/>
<line x1="1076" y1="551" x2="1101" y2="588" style="stroke:blue; stroke-width:1"/>
<line x1="1101" y1="588" x2="1101" y2="580" style="stroke:blue; stroke-width:1"/>
<line x1="1101" y1="588" x2="1809" y2="881" style="stroke:blue; stroke-width:1"/>
<line x1="1809" y1="881" x2="1817" y2="890" style="stroke:blue; stroke-width:1"/>
<line x1="1809" y1="881" x2="1946" y2="881" style="stroke:blue; stroke-width:1"/>
<text x="1077" y="480" font-weight = "10" font-family="verdana" fill="black" font-size="18">B1</text>
<text x="1077" y="480" font-weight = "10" font-family="verdana" fill="black" font-size="18">M4</text>
<text x="429" y="211" font-weight = "10" font-family="verdana" fill="black" font-size="18">B3</text>
<text x="10" y="211" font-weight = "10" font-family="verdana" fill="black" font-size="18">B4</text>
<text x="1059" y="568" font-weight = "10" font-family="verdana" fill="black" font-size="18">M1</text>
<text x="1095" y="595" font-weight = "10" font-family="verdana" fill="black" font-size="18">M3</text>
<text x="1817" y="903" font-weight = "10" font-family="verdana" fill="black" font-size="18">B2</text>
<text x="1948" y="888" font-weight = "10" font-family="verdana" fill="black" font-size="18">M2</text>
</g></svg>