<?xml version="1.0" encoding="iso-8859-1"?>
<!DOCTYPE svg PUBLIC "-//W3C//DTD SVG 1.0//EN" "http://www.w3.org/TR/2001/REC-SVG-20010904/DTD/svg10.dtd">
<svg width="2120" height="1130" xmlns="http://www.w3.org/2000/svg" xmlns:xlink="http://www.w3.org/1999/xlink">
<g style="stroke:black;fill:lightgreen" transform="translate(30,30)">
<line x1="1010" y1="391" x2="899" y2="658" style="stroke:blue; stroke-width:1"/>
<line x1="1010" y1="391" x2="1005" y2="396" style="stroke:blue; stroke-width:1"/>
<line x1="1010" y1="391" x2="1010" y2="24" style="stroke:blue; stroke-width:1"/>
<line x1="899" y1="658" x2="899" y2="658" style="stroke:blue; stroke-width:1"/>
<line x1="899" y1="658" x2="408" y2="167" style="stroke:blue; stroke-width:1"/>
<line x1="899" y1="658" x2="907" y2="658" style="stroke:blue; stroke-width:1"/>
<line x1="899" y1="658" x2="952" y2="785" style="stroke:blue; stroke-width:1"/>
<line x1="952" y1="785" x2="928" y2="843" style="stroke:blue; stroke-width:1"/>
<line x1="928" y1="843" x2="908" y2="863" style="stroke:blue; stroke-width:1"/>
<line x1="928" y1="843" x2="928" y2="1076" style="stroke:blue; stroke-width:1"/>
<line x1="952" y1="785" x2="1234" y2="902" style="stroke:blue; stroke-width:1"/>
<line x1="1234" y1="902" x2="1229" y2="896" style="stroke:blue; stroke-width:1"/>
<line x1="1234" y1="902" x2="1560" y2="902" style="stroke:blue; stroke-width:1"/>
<text x="1004" y="398" font-weight = "10" font-family="verdana" fill="black" font-size="18">B3</text>
<text x="1004" y="23" font-weight = "10" font-family="verdana" fill="black" font-size="18">B4</text>
<text x="396" y="168" font-weight = "10" font-family="verdana" fill="black" font-size="18">B1</text>
<text x="893" y="665" font-weight = "10" font-family="verdana" fill="black" font-size="18">M4</text>
<text x="896" y="875" font-weight = "10" font-family="verdana" fill="black" font-size="18">B2</text>
<text x="922" y="1091" font-weight = "10" font-family="verdana" fill="black" font-size="18">M1</text>
<text x="1228" y="909" font-weight = "10" font-family="verdana" fill="black" font-size="18">M2</text>
<text x="1562" y="909" font-weight = "10" font-family="verdana" fill="black" font-size="18">M3</text>
</g></svg>